<?xml version="1.0" encoding="UTF-8"?>
<svg xmlns="http://www.w3.org/2000/svg" width="850" height="120">
  <rect x="0" y="10" width="25" height="40" fill="grey"/>
  <text x="12.5" y="70" transform="rotate(-50, 12.5 ,70)" style="font-size: 9px; fill: black; text-anchor: middle;">Masked</text>
  <rect x="25" y="10" width="25" height="40" fill="#FFFF00"/>
  <rect x="50" y="10" width="25" height="40" fill="#FFF400"/>
  <rect x="75" y="10" width="25" height="40" fill="#FFE900"/>
  <rect x="100" y="10" width="25" height="40" fill="#FFDF00"/>
  <rect x="125" y="10" width="25" height="40" fill="#FFD400"/>
  <rect x="150" y="10" width="25" height="40" fill="#FFC900"/>
  <rect x="175" y="10" width="25" height="40" fill="#FFBF00"/>
  <rect x="200" y="10" width="25" height="40" fill="#FFB400"/>
  <rect x="225" y="10" width="25" height="40" fill="#FFAA00"/>
  <rect x="250" y="10" width="25" height="40" fill="#FF9F00"/>
  <rect x="275" y="10" width="25" height="40" fill="#FF9400"/>
  <rect x="300" y="10" width="25" height="40" fill="#FF8A00"/>
  <rect x="325" y="10" width="25" height="40" fill="#FF7F00"/>
  <rect x="350" y="10" width="25" height="40" fill="#FF7400"/>
  <rect x="375" y="10" width="25" height="40" fill="#FF6A00"/>
  <rect x="400" y="10" width="25" height="40" fill="#FF5F00"/>
  <rect x="425" y="10" width="25" height="40" fill="#FF5500"/>
  <rect x="450" y="10" width="25" height="40" fill="#FF4A00"/>
  <rect x="475" y="10" width="25" height="40" fill="#FF3F00"/>
  <rect x="500" y="10" width="25" height="40" fill="#FF3500"/>
  <rect x="525" y="10" width="25" height="40" fill="#FF2A00"/>
  <rect x="550" y="10" width="25" height="40" fill="#FF1F00"/>
  <rect x="575" y="10" width="25" height="40" fill="#FF1500"/>
  <rect x="600" y="10" width="25" height="40" fill="#FF0A00"/>
  <rect x="625" y="10" width="25" height="40" fill="#FF0000"/>
  <text x="37.5" y="70" transform="rotate(-45, 37.5 ,70)" style="font-size: 12px; fill: black; text-anchor: middle;">0</text>
  <text x="62.5" y="70" transform="rotate(-45, 62.5 ,70)" style="font-size: 12px; fill: black; text-anchor: middle;">2.08</text>
  <text x="87.5" y="70" transform="rotate(-45, 87.5 ,70)" style="font-size: 12px; fill: black; text-anchor: middle;">4.17</text>
  <text x="112.5" y="70" transform="rotate(-45, 112.5 ,70)" style="font-size: 12px; fill: black; text-anchor: middle;">6.25</text>
  <text x="137.5" y="70" transform="rotate(-45, 137.5 ,70)" style="font-size: 12px; fill: black; text-anchor: middle;">8.33</text>
  <text x="162.5" y="70" transform="rotate(-45, 162.5 ,70)" style="font-size: 12px; fill: black; text-anchor: middle;">10.42</text>
  <text x="187.5" y="70" transform="rotate(-45, 187.5 ,70)" style="font-size: 12px; fill: black; text-anchor: middle;">12.5</text>
  <text x="212.5" y="70" transform="rotate(-45, 212.5 ,70)" style="font-size: 12px; fill: black; text-anchor: middle;">14.58</text>
  <text x="237.5" y="70" transform="rotate(-45, 237.5 ,70)" style="font-size: 12px; fill: black; text-anchor: middle;">16.67</text>
  <text x="262.5" y="70" transform="rotate(-45, 262.5 ,70)" style="font-size: 12px; fill: black; text-anchor: middle;">18.75</text>
  <text x="287.5" y="70" transform="rotate(-45, 287.5 ,70)" style="font-size: 12px; fill: black; text-anchor: middle;">20.83</text>
  <text x="312.5" y="70" transform="rotate(-45, 312.5 ,70)" style="font-size: 12px; fill: black; text-anchor: middle;">22.92</text>
  <text x="337.5" y="70" transform="rotate(-45, 337.5 ,70)" style="font-size: 12px; fill: black; text-anchor: middle;">25</text>
  <text x="362.5" y="70" transform="rotate(-45, 362.5 ,70)" style="font-size: 12px; fill: black; text-anchor: middle;">27.08</text>
  <text x="387.5" y="70" transform="rotate(-45, 387.5 ,70)" style="font-size: 12px; fill: black; text-anchor: middle;">29.17</text>
  <text x="412.5" y="70" transform="rotate(-45, 412.5 ,70)" style="font-size: 12px; fill: black; text-anchor: middle;">31.25</text>
  <text x="437.5" y="70" transform="rotate(-45, 437.5 ,70)" style="font-size: 12px; fill: black; text-anchor: middle;">33.33</text>
  <text x="462.5" y="70" transform="rotate(-45, 462.5 ,70)" style="font-size: 12px; fill: black; text-anchor: middle;">35.42</text>
  <text x="487.5" y="70" transform="rotate(-45, 487.5 ,70)" style="font-size: 12px; fill: black; text-anchor: middle;">37.5</text>
  <text x="512.5" y="70" transform="rotate(-45, 512.5 ,70)" style="font-size: 12px; fill: black; text-anchor: middle;">39.58</text>
  <text x="537.5" y="70" transform="rotate(-45, 537.5 ,70)" style="font-size: 12px; fill: black; text-anchor: middle;">41.67</text>
  <text x="562.5" y="70" transform="rotate(-45, 562.5 ,70)" style="font-size: 12px; fill: black; text-anchor: middle;">43.75</text>
  <text x="587.5" y="70" transform="rotate(-45, 587.5 ,70)" style="font-size: 12px; fill: black; text-anchor: middle;">45.83</text>
  <text x="612.5" y="70" transform="rotate(-45, 612.5 ,70)" style="font-size: 12px; fill: black; text-anchor: middle;">47.92</text>
  <text x="637.5" y="70" transform="rotate(-45, 637.5 ,70)" style="font-size: 12px; fill: black; text-anchor: middle;">50</text>
</svg>
